<?xml version="1.0" encoding="UTF-8" standalone="no"?>
<!-- Created with Inkscape (http://www.inkscape.org/) -->

<svg
   width="58.529167mm"
   height="25.629168mm"
   viewBox="0 0 58.529168 25.629168"
   version="1.1"
   id="svg1"
   inkscape:version="1.3 (0e150ed, 2023-07-21)"
   sodipodi:docname="sad_kilroy.svg"
   inkscape:export-filename="../images/sad_kilroy.png"
   inkscape:export-xdpi="200"
   inkscape:export-ydpi="200"
   xmlns:inkscape="http://www.inkscape.org/namespaces/inkscape"
   xmlns:sodipodi="http://sodipodi.sourceforge.net/DTD/sodipodi-0.dtd"
   xmlns="http://www.w3.org/2000/svg"
   xmlns:svg="http://www.w3.org/2000/svg">
  <sodipodi:namedview
     id="namedview1"
     pagecolor="#ffffff"
     bordercolor="#666666"
     borderopacity="1.0"
     inkscape:showpageshadow="2"
     inkscape:pageopacity="0.0"
     inkscape:pagecheckerboard="0"
     inkscape:deskcolor="#d1d1d1"
     inkscape:document-units="mm"
     showguides="true"
     showgrid="false"
     inkscape:zoom="4.7617927"
     inkscape:cx="110.98761"
     inkscape:cy="14.700346"
     inkscape:window-width="2488"
     inkscape:window-height="1387"
     inkscape:window-x="73"
     inkscape:window-y="25"
     inkscape:window-maximized="1"
     inkscape:current-layer="layer1">
    <inkscape:grid
       id="grid1"
       units="px"
       originx="-214.05511"
       originy="-514.14958"
       spacingx="0.26458333"
       spacingy="0.26458334"
       empcolor="#0099e5"
       empopacity="0.30196078"
       color="#0099e5"
       opacity="0.14901961"
       empspacing="5"
       dotted="false"
       gridanglex="30"
       gridanglez="30"
       visible="false" />
  </sodipodi:namedview>
  <defs
     id="defs1" />
  <g
     inkscape:label="Layer 1"
     inkscape:groupmode="layer"
     id="layer1"
     transform="translate(-56.635417,-136.03542)">
    <path
       id="rect1"
       style="fill:#ffffff;fill-rule:evenodd;stroke:#000000;stroke-width:0.529167;stroke-linecap:round;stroke-linejoin:round;stroke-dasharray:none"
       d="m 56.9,153.5 v 6.6 h 2.6 v -4 5.3 h 2.6 v -5.3 5.3 h 2.6 v -5.3 4 h 2.6 v -6.6 h -2.6 -2.6 -2.6 z"
       sodipodi:nodetypes="ccccccccccccccccc" />
    <path
       id="rect1-0"
       style="fill:#ffffff;fill-rule:evenodd;stroke:#000000;stroke-width:0.529167;stroke-linecap:round;stroke-linejoin:round;stroke-dasharray:none"
       d="m 104.5,153.5 v 6.6 h 2.6 v -4 5.3 h 2.6 v -5.3 5.3 h 2.6 v -5.3 4 h 2.6 v -6.6 h -2.6 -2.6 -2.6 z"
       sodipodi:nodetypes="ccccccccccccccccc" />
    <path
       id="rect1-2-3-3-4-9-8-3"
       style="fill:#f9f9f9;fill-rule:evenodd;stroke:#000000;stroke-width:0.529167;stroke-linecap:round;stroke-linejoin:round;stroke-dasharray:none"
       d="m 96.6,142.9 v -2.6 l 4,1.3 v -5.3 H 98 v 2.6 l -4,-1.3 v 5.3 m 2.6,0 h 5.3 v 13.2 H 70.1 v -13.2 h 23.8" />
    <path
       id="rect1-2-3-3-4-9"
       style="fill:none;fill-rule:evenodd;stroke:#000000;stroke-width:0.529167;stroke-linecap:round;stroke-linejoin:round;stroke-dasharray:none"
       d="m 92.7,152 h 5 v -3.8 l -5,-1.3 z"
       sodipodi:nodetypes="ccccc" />
    <path
       id="rect1-2-3-3-4-9-6"
       style="fill:none;fill-rule:evenodd;stroke:#000000;stroke-width:0.529167;stroke-linecap:round;stroke-linejoin:round;stroke-dasharray:none"
       d="m 79.2,152 h -5 v -3.8 l 5,-1.3 z"
       sodipodi:nodetypes="ccccc" />
    <path
       id="rect1-2-3-3-4-9-5"
       style="fill:#1a1a1a;fill-rule:evenodd;stroke:#000000;stroke-width:0.529167;stroke-linecap:round;stroke-linejoin:round;stroke-dasharray:none"
       d="m 94.5,147.4 a 1.2,1.2 0 0 0 -0.4,0.9 1.2,1.2 0 0 0 1.2,1.2 1.2,1.2 0 0 0 1.2,-1.2 1.2,1.2 0 0 0 -0.1,-0.4 z" />
    <path
       id="rect1-2-3-3-4-9-6-5"
       style="fill:#1a1a1a;fill-rule:evenodd;stroke:#000000;stroke-width:0.529167;stroke-linecap:round;stroke-linejoin:round;stroke-dasharray:none"
       d="m 77.5,147.4 -1.9,0.5 a 1.2,1.2 0 0 0 -0.1,0.4 1.2,1.2 0 0 0 1.2,1.2 1.2,1.2 0 0 0 1.2,-1.2 1.2,1.2 0 0 0 -0.4,-0.9 z" />
    <path
       id="rect2"
       style="fill:#ffffff;fill-rule:evenodd;stroke:#000000;stroke-width:0.529167;stroke-linecap:round;stroke-linejoin:round;stroke-dasharray:none"
       d="m 88.6,153.5 v 5.2 h -5.2 v -5.2"
       sodipodi:nodetypes="cccc" />
  </g>
</svg>
