<svg height="100" viewBox="0 0 545.7 100" width="545.7" xmlns="http://www.w3.org/2000/svg"><g fill-rule="evenodd" stroke-linecap="round" fill="currentColor"><path d="m8.2 77h-8.2v-58h47q3.3 0 6.05 1.65 2.75 1.65 4.4 4.4 1.65 2.75 1.65 6.05v45.9h-8.2v-45.9a3.747 3.747 0 0 0 -1.114-2.714 4.641 4.641 0 0 0 -.036-.036 3.848 3.848 0 0 0 -1.519-.958 3.889 3.889 0 0 0 -1.231-.192h-34.8q-1.6 0-2.8 1.15a3.92 3.92 0 0 0 -.899 1.26 3.678 3.678 0 0 0 -.301 1.49z"/><path d="m76.8 100h-8.2v-81h47q3.3 0 6.05 1.65 2.75 1.65 4.4 4.4 1.65 2.75 1.65 6.05v33.8q0 3.3-1.65 6.05-1.65 2.75-4.4 4.4-2.75 1.65-6.05 1.65h-38.8zm4-31.2h34.8a3.747 3.747 0 0 0 2.714-1.114 4.641 4.641 0 0 0 .036-.036 3.848 3.848 0 0 0 .958-1.519 3.889 3.889 0 0 0 .192-1.231v-33.8a3.747 3.747 0 0 0 -1.114-2.714 4.641 4.641 0 0 0 -.036-.036 3.848 3.848 0 0 0 -1.519-.958 3.889 3.889 0 0 0 -1.231-.192h-34.8q-1.6 0-2.8 1.15a3.92 3.92 0 0 0 -.899 1.26 3.678 3.678 0 0 0 -.301 1.49v33.8a3.661 3.661 0 0 0 1.126 2.678 4.71 4.71 0 0 0 .074.072q1.2 1.15 2.8 1.15z"/><path d="m143.3 77h-8.3v-58h76.6a12.039 12.039 0 0 1 4.506.834 11.428 11.428 0 0 1 1.644.816q2.75 1.65 4.35 4.4 1.6 2.75 1.6 6.05v45.9h-8.1v-45.9a3.661 3.661 0 0 0 -1.126-2.678 4.71 4.71 0 0 0 -.074-.072q-1.2-1.15-2.8-1.15h-24.1a3.747 3.747 0 0 0 -2.714 1.114 4.641 4.641 0 0 0 -.036.036 3.848 3.848 0 0 0 -.958 1.519 3.889 3.889 0 0 0 -.192 1.231v45.9h-8.3v-45.9a3.747 3.747 0 0 0 -1.114-2.714 4.641 4.641 0 0 0 -.036-.036 3.848 3.848 0 0 0 -1.519-.958 3.889 3.889 0 0 0 -1.231-.192h-24.2a3.747 3.747 0 0 0 -2.714 1.114 4.641 4.641 0 0 0 -.036.036 3.848 3.848 0 0 0 -.958 1.519 3.889 3.889 0 0 0 -.192 1.231z"/><path d="m278.4 99.9h-36.2v-8.3h36.2a3.747 3.747 0 0 0 2.714-1.114 4.641 4.641 0 0 0 .036-.036 3.848 3.848 0 0 0 .958-1.519 3.889 3.889 0 0 0 .192-1.231v-10.7h-38.7q-3.3 0-6.05-1.65-2.75-1.65-4.4-4.4-1.65-2.75-1.65-6.05v-33.8q0-3.3 1.65-6.05 1.65-2.75 4.4-4.4 2.75-1.65 6.05-1.65h34.8a12.039 12.039 0 0 1 4.506.834 11.428 11.428 0 0 1 1.644.816q2.75 1.65 4.35 4.4 1.6 2.75 1.6 6.05v56.6a12.427 12.427 0 0 1 -.739 4.322 11.564 11.564 0 0 1 -.861 1.828q-1.6 2.75-4.35 4.4a11.672 11.672 0 0 1 -5.912 1.648 13.871 13.871 0 0 1 -.238.002zm-34.8-31.1h34.8a3.747 3.747 0 0 0 2.714-1.114 4.641 4.641 0 0 0 .036-.036 3.848 3.848 0 0 0 .958-1.519 3.889 3.889 0 0 0 .192-1.231v-33.8a3.747 3.747 0 0 0 -1.114-2.714 4.641 4.641 0 0 0 -.036-.036 3.848 3.848 0 0 0 -1.519-.958 3.889 3.889 0 0 0 -1.231-.192h-34.8a3.747 3.747 0 0 0 -2.714 1.114 4.641 4.641 0 0 0 -.036.036 3.848 3.848 0 0 0 -.958 1.519 3.889 3.889 0 0 0 -.192 1.231v33.8a3.747 3.747 0 0 0 1.114 2.714 4.641 4.641 0 0 0 .036.036 3.848 3.848 0 0 0 1.519.958 3.889 3.889 0 0 0 1.231.192z"/><path id="logo-5" d="m307.6 77h-8.2v-45.9q0-3.3 1.65-6.05 1.65-2.75 4.4-4.4 2.75-1.65 6.05-1.65h32.6v8.2h-32.6a3.747 3.747 0 0 0 -2.714 1.114 4.641 4.641 0 0 0 -.036.036 3.848 3.848 0 0 0 -.958 1.519 3.889 3.889 0 0 0 -.192 1.231z"/><path d="m409.7 77h-47q-3.3 0-6.05-1.65-2.75-1.65-4.4-4.4-1.65-2.75-1.65-6.05v-21h50.8v-12.8a3.747 3.747 0 0 0 -1.114-2.714 4.641 4.641 0 0 0 -.036-.036 3.848 3.848 0 0 0 -1.519-.958 3.889 3.889 0 0 0 -1.231-.192h-46.9v-8.2h46.9a12.039 12.039 0 0 1 4.506.834 11.428 11.428 0 0 1 1.644.816q2.75 1.65 4.4 4.4 1.65 2.75 1.65 6.05zm-47-8.2h38.7v-16.7h-42.6v12.8a3.747 3.747 0 0 0 1.114 2.714 4.641 4.641 0 0 0 .036.036 3.848 3.848 0 0 0 1.519.958 3.889 3.889 0 0 0 1.231.192z"/><path d="m428.4 100h-8.2v-81h47q3.3 0 6.05 1.65 2.75 1.65 4.4 4.4 1.65 2.75 1.65 6.05v33.8q0 3.3-1.65 6.05-1.65 2.75-4.4 4.4-2.75 1.65-6.05 1.65h-38.8zm4-31.2h34.8a3.747 3.747 0 0 0 2.714-1.114 4.641 4.641 0 0 0 .036-.036 3.848 3.848 0 0 0 .958-1.519 3.889 3.889 0 0 0 .192-1.231v-33.8a3.747 3.747 0 0 0 -1.114-2.714 4.641 4.641 0 0 0 -.036-.036 3.848 3.848 0 0 0 -1.519-.958 3.889 3.889 0 0 0 -1.231-.192h-34.8q-1.6 0-2.8 1.15a3.92 3.92 0 0 0 -.899 1.26 3.678 3.678 0 0 0 -.301 1.49v33.8a3.661 3.661 0 0 0 1.126 2.678 4.71 4.71 0 0 0 .074.072q1.2 1.15 2.8 1.15z"/><path d="m494.8 77h-8.2v-77h8.2v19h38.8q3.3 0 6.05 1.65 2.75 1.65 4.4 4.4 1.65 2.75 1.65 6.05v45.9h-8.2v-45.9a3.747 3.747 0 0 0 -1.114-2.714 4.641 4.641 0 0 0 -.036-.036 3.848 3.848 0 0 0 -1.519-.958 3.889 3.889 0 0 0 -1.231-.192h-34.8q-1.6 0-2.8 1.15a3.92 3.92 0 0 0 -.899 1.26 3.678 3.678 0 0 0 -.301 1.49z"/></g></svg>
